<svg width="18" height="18" viewBox="0 0 18 18" fill="none" xmlns="http://www.w3.org/2000/svg">
<path d="M7.03123 8.18655C7.11676 8.13717 7.18778 8.06614 7.23715 7.9806C7.28652 7.89507 7.3125 7.79804 7.31248 7.69928V2.63678C7.31198 2.5471 7.29004 2.45884 7.2485 2.37936C7.20695 2.29988 7.14701 2.23149 7.07366 2.17988C7.00031 2.12828 6.91569 2.09496 6.82685 2.0827C6.73801 2.07045 6.64753 2.07962 6.56295 2.10944C4.92114 2.69051 3.54044 3.83817 2.66906 5.34611C1.79767 6.85405 1.49276 8.62337 1.80912 10.336C1.82552 10.4246 1.86295 10.5079 1.91825 10.579C1.97356 10.6501 2.04512 10.7068 2.12693 10.7445C2.20066 10.779 2.28109 10.7968 2.36248 10.7965C2.46121 10.7966 2.55821 10.7706 2.64373 10.7213L7.03123 8.18655ZM6.18748 3.48897V7.37444L2.82092 9.31717C2.81248 9.211 2.81248 9.10412 2.81248 9.00006C2.81348 7.85985 3.12909 6.74202 3.72457 5.76965C4.32005 4.79729 5.1723 4.00809 6.18748 3.48897ZM8.99998 1.68756C8.8508 1.68756 8.70772 1.74682 8.60223 1.85231C8.49674 1.9578 8.43748 2.10088 8.43748 2.25006V8.70615L2.89615 11.9342C2.83185 11.9715 2.77557 12.0211 2.73057 12.0803C2.68557 12.1394 2.65274 12.2069 2.63397 12.2788C2.61521 12.3508 2.61089 12.4257 2.62125 12.4993C2.63161 12.5729 2.65646 12.6437 2.69436 12.7076C3.34384 13.8118 4.27196 14.7259 5.38582 15.3585C6.49967 15.9912 7.76017 16.3201 9.04113 16.3124C10.3221 16.3047 11.5785 15.9607 12.6847 15.3147C13.7909 14.6688 14.708 13.7436 15.3442 12.6317C15.9804 11.5199 16.3133 10.2605 16.3097 8.97949C16.3061 7.69851 15.9661 6.44096 15.3237 5.33273C14.6812 4.22449 13.7589 3.30446 12.6491 2.66473C11.5393 2.02501 10.281 1.68804 8.99998 1.68756ZM8.99998 15.1876C8.01803 15.1849 7.05065 14.9499 6.17698 14.5016C5.30331 14.0533 4.54817 13.4046 3.97334 12.6085L9.28334 9.51475C9.36877 9.46543 9.43972 9.39451 9.48909 9.30911C9.53845 9.22371 9.56449 9.12683 9.56459 9.02819V2.83787C11.1511 2.98182 12.621 3.73214 13.6682 4.93263C14.7155 6.13311 15.2593 7.69126 15.1866 9.28265C15.1138 10.874 14.43 12.3761 13.2777 13.476C12.1253 14.5759 10.593 15.189 8.99998 15.1876Z" fill="white"/>
</svg>
