<svg width="18" height="18" viewBox="0 0 18 18" fill="none" xmlns="http://www.w3.org/2000/svg">
<path d="M15.944 4.85162C15.9099 4.76729 15.8559 4.69249 15.7865 4.63364C15.7171 4.57479 15.6345 4.53365 15.5457 4.51373C15.4569 4.49382 15.3647 4.49574 15.2768 4.51932C15.1889 4.5429 15.1081 4.58744 15.0412 4.64913L12.2076 7.26405L10.9962 7.00389L10.736 5.79241L13.3509 2.95881C13.4126 2.89194 13.4571 2.8111 13.4807 2.72324C13.5043 2.63537 13.5062 2.5431 13.4863 2.45433C13.4664 2.36556 13.4253 2.28294 13.3664 2.21357C13.3076 2.14419 13.2328 2.09012 13.1484 2.056C12.3799 1.7451 11.5467 1.62771 10.7222 1.71415C9.89762 1.80059 9.10692 2.08821 8.41955 2.55174C7.73217 3.01527 7.16915 3.64052 6.77996 4.37255C6.39077 5.10459 6.18732 5.921 6.18748 6.75006C6.18657 7.45015 6.3302 8.14289 6.60936 8.78491L2.37584 12.4454C2.3653 12.4538 2.35545 12.4637 2.34561 12.4728C1.9236 12.8948 1.68652 13.4672 1.68652 14.064C1.68652 14.3595 1.74473 14.6521 1.85781 14.9251C1.9709 15.1981 2.13665 15.4462 2.34561 15.6551C2.55456 15.8641 2.80263 16.0298 3.07564 16.1429C3.34866 16.256 3.64127 16.3142 3.93678 16.3142C4.53359 16.3142 5.10595 16.0771 5.52795 15.6551C5.53709 15.646 5.54694 15.6355 5.55537 15.6256L9.21514 11.3907C9.98607 11.7291 10.8292 11.8699 11.6683 11.8003C12.5073 11.7308 13.3158 11.453 14.0205 10.9923C14.7251 10.5315 15.3038 9.90231 15.704 9.16158C16.1042 8.42084 16.3133 7.592 16.3125 6.75006C16.3136 6.09938 16.1885 5.45466 15.944 4.85162ZM11.25 10.6876C10.5842 10.6866 9.92941 10.5173 9.34662 10.1954C9.23372 10.133 9.1028 10.1113 8.97582 10.134C8.84883 10.1566 8.73349 10.2223 8.64912 10.3198L4.71866 14.8719C4.50596 15.0739 4.22274 15.1849 3.92938 15.1812C3.63603 15.1774 3.35574 15.0592 3.14829 14.8518C2.94084 14.6443 2.82264 14.364 2.81888 14.0707C2.81512 13.7773 2.92611 13.4941 3.12819 13.2814L7.6767 9.35162C7.77444 9.26722 7.84016 9.15175 7.86283 9.02461C7.88549 8.89747 7.86371 8.7664 7.80116 8.65342C7.44258 8.00489 7.2743 7.26833 7.31567 6.52842C7.35703 5.78852 7.60636 5.0753 8.03499 4.47078C8.46361 3.86625 9.05413 3.39496 9.73866 3.11107C10.4232 2.82719 11.1739 2.74224 11.9046 2.866L9.71084 5.24327C9.6498 5.30948 9.60556 5.38938 9.58182 5.47626C9.55808 5.56313 9.55555 5.65443 9.57444 5.74248L9.97241 7.59381C9.99517 7.6997 10.048 7.79676 10.1246 7.87334C10.2012 7.94992 10.2982 8.00277 10.4041 8.02553L12.2569 8.4235C12.3449 8.44239 12.4362 8.43985 12.5231 8.41612C12.61 8.39238 12.6899 8.34813 12.7561 8.28709L15.1333 6.09334C15.2281 6.65796 15.1988 7.23644 15.0473 7.78856C14.8959 8.34068 14.626 8.85318 14.2564 9.29042C13.8868 9.72766 13.4264 10.0791 12.9072 10.3204C12.388 10.5617 11.8225 10.687 11.25 10.6876Z" fill="white"/>
</svg>
