<svg width="18" height="18" viewBox="0 0 18 18" fill="none" xmlns="http://www.w3.org/2000/svg">
<g clip-path="url(#clip0_105_58)">
<path d="M17.1085 8.20483L15.9835 7.07983C15.7927 6.88924 15.5397 6.77354 15.2708 6.75379C15.0018 6.73405 14.7347 6.81157 14.5181 6.97225L11.0278 3.48194C11.1886 3.26543 11.2662 2.99838 11.2466 2.72942C11.227 2.46047 11.1114 2.20751 10.921 2.01662L9.79595 0.891623C9.69148 0.78713 9.56745 0.70424 9.43095 0.647687C9.29444 0.591135 9.14813 0.562027 9.00037 0.562027C8.85261 0.562027 8.7063 0.591135 8.56979 0.647687C8.43328 0.70424 8.30925 0.78713 8.20478 0.891623L3.70478 5.39162C3.60029 5.49609 3.5174 5.62012 3.46085 5.75663C3.40429 5.89314 3.37519 6.03945 3.37519 6.18721C3.37519 6.33497 3.40429 6.48128 3.46085 6.61779C3.5174 6.75429 3.60029 6.87832 3.70478 6.98279L4.82978 8.10779C5.02063 8.29809 5.27345 8.41355 5.54224 8.43316C5.81104 8.45277 6.07794 8.37524 6.29439 8.21467L6.79853 8.71881L2.2015 13.3158C1.89609 13.6499 1.73129 14.0888 1.74141 14.5413C1.75152 14.9938 1.93578 15.4249 2.25582 15.745C2.57585 16.065 3.007 16.2493 3.45948 16.2594C3.91197 16.2695 4.35092 16.1047 4.68494 15.7993L9.28127 11.2022L9.78541 11.7057C9.62464 11.9222 9.547 12.1892 9.56661 12.4582C9.58623 12.7271 9.7018 12.9801 9.89228 13.171L11.0173 14.296C11.1218 14.4005 11.2458 14.4834 11.3823 14.5399C11.5188 14.5965 11.6651 14.6256 11.8129 14.6256C11.9606 14.6256 12.1069 14.5965 12.2434 14.5399C12.38 14.4834 12.504 14.4005 12.6085 14.296L17.1085 9.796C17.2129 9.69153 17.2958 9.5675 17.3524 9.43099C17.4089 9.29448 17.4381 9.14817 17.4381 9.00041C17.4381 8.85265 17.4089 8.70634 17.3524 8.56983C17.2958 8.43333 17.2129 8.3093 17.1085 8.20483ZM5.62502 7.31256L4.50002 6.18756L9.00002 1.68756L10.125 2.81256L5.62502 7.31256ZM3.8897 15.0033C3.77114 15.1212 3.61075 15.1874 3.44357 15.1874C3.27639 15.1874 3.116 15.1212 2.99744 15.0033C2.87979 14.8848 2.81377 14.7246 2.81377 14.5576C2.81377 14.3906 2.87979 14.2303 2.99744 14.1118L7.59377 9.51475L8.48603 10.4063L3.8897 15.0033ZM7.10158 7.42928L10.2417 4.28912L13.711 7.75834L10.5715 10.8985L7.10158 7.42928ZM11.8125 13.5001L10.6875 12.3751L10.9688 12.0938L14.9063 8.15631L15.1875 7.87506L16.3125 9.00006L11.8125 13.5001Z" fill="white"/>
</g>
<defs>
<clipPath id="clip0_105_58">
<rect width="18" height="18" fill="white"/>
</clipPath>
</defs>
</svg>
