<svg width="100" height="100" viewBox="0 0 100 100" fill="none" xmlns="http://www.w3.org/2000/svg">
<g clip-path="url(#clip0_719_45)">
<path d="M0 12C0 5.37258 5.37258 0 12 0H88C94.6274 0 100 5.37258 100 12V88C100 94.6274 94.6274 100 88 100H12C5.37258 100 0 94.6274 0 88V12Z" fill="#171717"/>
<path fill-rule="evenodd" clip-rule="evenodd" d="M46.5397 43.7177C45.7122 44.6946 44.6054 45.8799 43.2846 46.5886L39.6569 39.8279C39.6471 39.8332 39.6503 39.8306 39.667 39.8169C39.7394 39.7576 40.0649 39.491 40.6853 38.7586C41.3758 37.9434 42.1774 36.8652 43.1538 35.5202C43.3529 35.246 43.5578 34.9626 43.7685 34.6712C45.5644 32.1878 47.781 29.1226 50.3521 26.237C56.0135 19.8831 64.4413 13.2313 75.744 15.8337C82.4508 17.3779 86.6375 21.4714 88.6148 26.6613C90.5095 31.6343 90.2774 37.3059 89.0173 42.2872C87.7553 47.2756 85.3381 52.0724 82.268 55.366C79.3414 58.5057 74.6432 61.3359 69.6267 58.9142L72.9623 52.0048C73.329 52.1818 74.4949 52.4526 76.6555 50.1346C78.6726 47.9707 80.5657 44.4114 81.5791 40.4055C82.5943 36.3925 82.6027 32.4313 81.4451 29.3929C80.3701 26.5715 78.2117 24.2751 74.0225 23.3105C67.023 21.699 61.2815 25.504 56.0806 31.3411C53.7859 33.9164 51.8003 36.6602 49.9826 39.1719C49.7738 39.4604 49.5672 39.7459 49.3626 40.0278C48.3987 41.3555 47.4407 42.6541 46.5397 43.7177Z" fill="url(#paint0_linear_719_45)"/>
<path fill-rule="evenodd" clip-rule="evenodd" d="M35.8022 24.503C32.2573 21.5836 24.7334 21.3453 20.1473 30.4545C16.9986 36.7088 17.1293 43.4426 19.0072 47.5997C19.936 49.6557 21.1332 50.7681 22.2196 51.212C23.19 51.6085 24.6666 51.7191 26.8586 50.4987L30.5906 57.2024C26.7808 59.3233 22.8525 59.7588 19.3176 58.3145C15.8988 56.9176 13.4901 54.0236 12.0151 50.7584C9.08536 44.273 9.21606 35.1049 13.2943 27.0044C19.7946 14.0929 32.853 12.115 40.6965 18.5944L40.7055 18.6018L47.5207 24.3017L42.5984 30.1871L35.8022 24.503Z" fill="url(#paint1_linear_719_45)"/>
<path fill-rule="evenodd" clip-rule="evenodd" d="M30.3043 34.9717C32.3926 34.6139 34.3755 36.0168 34.7333 38.1051C35.2161 40.9231 36.6137 45.9494 39.3413 50.1595C42.0359 54.3188 45.6599 57.1916 50.6916 57.1916C51.7785 57.1916 53.2204 56.7359 54.9459 55.5721C56.6457 54.4255 58.3882 52.7442 59.9911 50.7214C63.2746 46.5781 65.4394 41.6991 65.7419 38.4024C65.9355 36.2925 67.8028 34.7391 69.9126 34.9327C72.0224 35.1263 73.5759 36.9935 73.3823 39.1034C72.8985 44.3766 69.8491 50.6351 66.0044 55.4867C64.0433 57.9614 61.7432 60.2419 59.2362 61.9329C56.7549 63.6065 53.8258 64.864 50.6916 64.864C42.1135 64.864 36.4057 59.7394 32.902 54.3312C29.4312 48.9738 27.7641 42.8627 27.1709 39.4007C26.8132 37.3124 28.216 35.3295 30.3043 34.9717Z" fill="url(#paint2_linear_719_45)"/>
<path d="M25.9913 74.6006L23.8057 85.3745H20.9121L18.7266 74.6006H20.9429L21.7894 79.5874L22.3128 82.8196H22.4051L22.9284 79.5874L23.7749 74.6006H25.9913Z" fill="url(#paint3_linear_719_45)"/>
<path d="M75.2185 85.3745V74.6006H80.744V76.4475H77.3271V79.0179H80.3746V80.8033H77.3271V83.5891H80.8056V85.3745H75.2185Z" fill="url(#paint4_linear_719_45)"/>
<path d="M66.9036 74.6006H70.9977C71.6441 74.8161 72.1931 75.2162 72.6446 75.8011C73.1063 76.3757 73.3372 77.0837 73.3372 77.9251C73.3372 79.3001 72.7933 80.3108 71.7057 80.9572L73.2602 85.3745H71.1054L69.7971 81.4497H68.9814V85.3745H66.9036V74.6006ZM68.9814 76.4475V79.7259H70.3051C70.4795 79.6849 70.6693 79.5104 70.8745 79.2026C71.09 78.8845 71.1978 78.5151 71.1978 78.0944C71.1978 77.6737 71.1054 77.3043 70.9207 76.9862C70.7463 76.6682 70.5718 76.4886 70.3974 76.4475H68.9814Z" fill="url(#paint5_linear_719_45)"/>
<path d="M60.6952 83.5891H61.9881C62.2138 83.3429 62.3729 83.0966 62.4652 82.8503C62.5678 82.5938 62.6192 82.2193 62.6192 81.7268V74.6006H64.7278V80.9572C64.7278 81.4805 64.7124 81.8909 64.6816 82.1885C64.6611 82.4758 64.5995 82.8298 64.4969 83.2505C64.3225 83.9996 63.8402 84.7076 63.0501 85.3745H59.6332C58.8431 84.7281 58.3609 84.0201 58.1864 83.2505C58.0325 82.6246 57.9556 81.8602 57.9556 80.9572V74.6006H60.0642V81.7268C60.0642 82.2193 60.1104 82.5938 60.2027 82.8503C60.3053 83.0966 60.4695 83.3429 60.6952 83.5891Z" fill="url(#paint6_linear_719_45)"/>
<path d="M53.4248 83.5891H56.1337V85.3745H52.2243C51.5471 84.7383 51.034 83.9329 50.6852 82.9581C50.3363 81.9833 50.1619 80.9829 50.1619 79.9568C50.1619 78.9204 50.3568 77.9251 50.7467 76.9709C51.1367 76.0166 51.7164 75.2265 52.486 74.6006H56.1337V76.4475H53.4248C53.1478 76.7656 52.9067 77.2787 52.7014 77.9867C52.5065 78.6947 52.409 79.3719 52.409 80.0183C52.409 80.6648 52.5065 81.342 52.7014 82.05C52.9067 82.758 53.1478 83.271 53.4248 83.5891Z" fill="url(#paint7_linear_719_45)"/>
<path d="M46.9516 85.3747H43.5963C42.5702 84.4205 42.0571 83.1173 42.0571 81.4653C42.0571 80.6342 42.17 79.9108 42.3957 79.2952C42.6317 78.6795 43.0011 78.0844 43.5039 77.5098H47.1055C47.6391 78.1254 48.0033 78.7257 48.1983 79.3106C48.3932 79.8852 48.4907 80.6034 48.4907 81.4653C48.4907 83.1173 47.9777 84.4205 46.9516 85.3747ZM44.6891 83.7586H45.8588C46.2282 83.0404 46.4129 82.2246 46.4129 81.3114C46.4129 80.3982 46.2231 79.6697 45.8434 79.1259H44.6891C44.3197 79.6492 44.135 80.3931 44.135 81.3576C44.135 82.3119 44.3197 83.1122 44.6891 83.7586Z" fill="url(#paint8_linear_719_45)"/>
<path d="M36.9038 85.3747V77.5098H38.366L38.7508 78.3409C39.1612 77.7868 39.6794 77.5098 40.3053 77.5098H40.9056V79.5722H38.9509V85.3747H36.9038Z" fill="url(#paint9_linear_719_45)"/>
<path d="M30.7133 76.4475V80.2954H32.0832C32.6475 79.8336 32.9297 79.1564 32.9297 78.2637C32.9297 77.8841 32.8527 77.5249 32.6988 77.1863C32.5552 76.8477 32.3807 76.6015 32.1755 76.4475H30.7133ZM28.6355 85.3745V74.6006H32.8066C33.5043 74.9084 34.0533 75.3804 34.4534 76.0166C34.8639 76.6528 35.0691 77.3967 35.0691 78.2483C35.0691 79.0897 34.8587 79.8696 34.438 80.5878C34.0174 81.3061 33.3966 81.814 32.5757 82.1116H30.7133V85.3745H28.6355Z" fill="url(#paint10_linear_719_45)"/>
</g>
<defs>
<linearGradient id="paint0_linear_719_45" x1="36.9147" y1="15.3683" x2="92.4439" y2="15.3683" gradientUnits="userSpaceOnUse">
<stop stop-color="#7DBDF3"/>
<stop offset="1" stop-color="#5992BC"/>
</linearGradient>
<linearGradient id="paint1_linear_719_45" x1="28.1618" y1="17.9632" x2="28.1618" y2="61.7705" gradientUnits="userSpaceOnUse">
<stop stop-color="#93A5FD"/>
<stop offset="0.553672" stop-color="#71C6F4"/>
</linearGradient>
<linearGradient id="paint2_linear_719_45" x1="43.1345" y1="33.4386" x2="55.337" y2="66.5013" gradientUnits="userSpaceOnUse">
<stop stop-color="#FBC67B"/>
<stop offset="1" stop-color="#DF9899"/>
</linearGradient>
<linearGradient id="paint3_linear_719_45" x1="22.3622" y1="68.9176" x2="22.3622" y2="90.3953" gradientUnits="userSpaceOnUse">
<stop stop-color="#FFA500"/>
<stop offset="1" stop-color="#C1810D"/>
</linearGradient>
<linearGradient id="paint4_linear_719_45" x1="33.6895" y1="79.6593" x2="75.2205" y2="85.3896" gradientUnits="userSpaceOnUse">
<stop stop-color="#2C83EC"/>
<stop offset="1" stop-color="#88B0FA"/>
</linearGradient>
<linearGradient id="paint5_linear_719_45" x1="33.6895" y1="79.6593" x2="75.2206" y2="85.3896" gradientUnits="userSpaceOnUse">
<stop stop-color="#2C83EC"/>
<stop offset="1" stop-color="#88B0FA"/>
</linearGradient>
<linearGradient id="paint6_linear_719_45" x1="33.6896" y1="79.6593" x2="75.2206" y2="85.3896" gradientUnits="userSpaceOnUse">
<stop stop-color="#2C83EC"/>
<stop offset="1" stop-color="#88B0FA"/>
</linearGradient>
<linearGradient id="paint7_linear_719_45" x1="33.6894" y1="79.6593" x2="75.2205" y2="85.3896" gradientUnits="userSpaceOnUse">
<stop stop-color="#2C83EC"/>
<stop offset="1" stop-color="#88B0FA"/>
</linearGradient>
<linearGradient id="paint8_linear_719_45" x1="33.6896" y1="79.6595" x2="75.2206" y2="85.3898" gradientUnits="userSpaceOnUse">
<stop stop-color="#2C83EC"/>
<stop offset="1" stop-color="#88B0FA"/>
</linearGradient>
<linearGradient id="paint9_linear_719_45" x1="33.6894" y1="79.6595" x2="75.2204" y2="85.3898" gradientUnits="userSpaceOnUse">
<stop stop-color="#2C83EC"/>
<stop offset="1" stop-color="#88B0FA"/>
</linearGradient>
<linearGradient id="paint10_linear_719_45" x1="33.6895" y1="79.6593" x2="75.2205" y2="85.3896" gradientUnits="userSpaceOnUse">
<stop stop-color="#2C83EC"/>
<stop offset="1" stop-color="#88B0FA"/>
</linearGradient>
<clipPath id="clip0_719_45">
<rect width="100" height="100" fill="white"/>
</clipPath>
</defs>
</svg>
